%TF.GenerationSoftware,KiCad,Pcbnew,9.0.6*%
%TF.CreationDate,2025-12-25T16:33:08+05:30*%
%TF.ProjectId,GitHub2,47697448-7562-4322-9e6b-696361645f70,rev?*%
%TF.SameCoordinates,Original*%
%TF.FileFunction,Copper,L2,Bot*%
%TF.FilePolarity,Positive*%
%FSLAX46Y46*%
G04 Gerber Fmt 4.6, Leading zero omitted, Abs format (unit mm)*
G04 Created by KiCad (PCBNEW 9.0.6) date 2025-12-25 16:33:08*
%MOMM*%
%LPD*%
G01*
G04 APERTURE LIST*
G04 Aperture macros list*
%AMRoundRect*
0 Rectangle with rounded corners*
0 $1 Rounding radius*
0 $2 $3 $4 $5 $6 $7 $8 $9 X,Y pos of 4 corners*
0 Add a 4 corners polygon primitive as box body*
4,1,4,$2,$3,$4,$5,$6,$7,$8,$9,$2,$3,0*
0 Add four circle primitives for the rounded corners*
1,1,$1+$1,$2,$3*
1,1,$1+$1,$4,$5*
1,1,$1+$1,$6,$7*
1,1,$1+$1,$8,$9*
0 Add four rect primitives between the rounded corners*
20,1,$1+$1,$2,$3,$4,$5,0*
20,1,$1+$1,$4,$5,$6,$7,0*
20,1,$1+$1,$6,$7,$8,$9,0*
20,1,$1+$1,$8,$9,$2,$3,0*%
G04 Aperture macros list end*
%TA.AperFunction,SMDPad,CuDef*%
%ADD10RoundRect,0.250000X0.250000X0.475000X-0.250000X0.475000X-0.250000X-0.475000X0.250000X-0.475000X0*%
%TD*%
%TA.AperFunction,SMDPad,CuDef*%
%ADD11RoundRect,0.250000X1.500000X-0.250000X1.500000X0.250000X-1.500000X0.250000X-1.500000X-0.250000X0*%
%TD*%
%TA.AperFunction,SMDPad,CuDef*%
%ADD12RoundRect,0.250001X1.449999X-0.499999X1.449999X0.499999X-1.449999X0.499999X-1.449999X-0.499999X0*%
%TD*%
%TA.AperFunction,SMDPad,CuDef*%
%ADD13RoundRect,0.250000X1.000000X0.650000X-1.000000X0.650000X-1.000000X-0.650000X1.000000X-0.650000X0*%
%TD*%
%TA.AperFunction,SMDPad,CuDef*%
%ADD14RoundRect,0.250000X1.500000X0.550000X-1.500000X0.550000X-1.500000X-0.550000X1.500000X-0.550000X0*%
%TD*%
%TA.AperFunction,ViaPad*%
%ADD15C,0.600000*%
%TD*%
%TA.AperFunction,Conductor*%
%ADD16C,0.200000*%
%TD*%
G04 APERTURE END LIST*
D10*
%TO.P,C12,1*%
%TO.N,Net-(J1-Pin_2)*%
X27500000Y-35500000D03*
%TO.P,C12,2*%
%TO.N,Net-(J3-Pin_3)*%
X25600000Y-35500000D03*
%TD*%
D11*
%TO.P,J2,1,Pin_1*%
%TO.N,Net-(J2-Pin_1)*%
X37750000Y-33150000D03*
%TO.P,J2,2,Pin_2*%
%TO.N,Net-(D1-K)*%
X37750000Y-31150000D03*
D12*
%TO.P,J2,MP*%
%TO.N,N/C*%
X32000000Y-35500000D03*
X32000000Y-28800000D03*
%TD*%
D13*
%TO.P,D4,1,K*%
%TO.N,Net-(D3-A)*%
X20500000Y-30500000D03*
%TO.P,D4,2,A*%
%TO.N,Net-(D2-A)*%
X16500000Y-30500000D03*
%TD*%
D10*
%TO.P,C6,1*%
%TO.N,Net-(J1-Pin_2)*%
X27500000Y-23000000D03*
%TO.P,C6,2*%
%TO.N,Net-(D2-A)*%
X25600000Y-23000000D03*
%TD*%
D14*
%TO.P,C9,1*%
%TO.N,Net-(J1-Pin_2)*%
X21500000Y-37500000D03*
%TO.P,C9,2*%
%TO.N,Net-(J3-Pin_3)*%
X16100000Y-37500000D03*
%TD*%
D10*
%TO.P,C10,1*%
%TO.N,Net-(J2-Pin_1)*%
X27500000Y-27500000D03*
%TO.P,C10,2*%
%TO.N,Net-(D1-K)*%
X25600000Y-27500000D03*
%TD*%
%TO.P,C11,1*%
%TO.N,Net-(J3-Pin_1)*%
X27500000Y-31500000D03*
%TO.P,C11,2*%
%TO.N,Net-(J1-Pin_2)*%
X25600000Y-31500000D03*
%TD*%
%TO.P,C5,1*%
%TO.N,Net-(D1-K)*%
X27500000Y-18500000D03*
%TO.P,C5,2*%
%TO.N,Net-(J1-Pin_2)*%
X25600000Y-18500000D03*
%TD*%
%TO.P,C4,1*%
%TO.N,Net-(D1-K)*%
X27400000Y-14000000D03*
%TO.P,C4,2*%
X25500000Y-14000000D03*
%TD*%
D13*
%TO.P,D3,1,K*%
%TO.N,Net-(D1-K)*%
X20500000Y-25000000D03*
%TO.P,D3,2,A*%
%TO.N,Net-(D3-A)*%
X16500000Y-25000000D03*
%TD*%
%TO.P,D1,1,K*%
%TO.N,Net-(D1-K)*%
X20500000Y-15000000D03*
%TO.P,D1,2,A*%
%TO.N,Net-(D1-A)*%
X16500000Y-15000000D03*
%TD*%
%TO.P,D2,1,K*%
%TO.N,Net-(D1-A)*%
X20500000Y-20000000D03*
%TO.P,D2,2,A*%
%TO.N,Net-(D2-A)*%
X16500000Y-20000000D03*
%TD*%
D11*
%TO.P,J3,1,Pin_1*%
%TO.N,Net-(J3-Pin_1)*%
X37750000Y-21650000D03*
%TO.P,J3,2,Pin_2*%
%TO.N,Net-(J1-Pin_2)*%
X37750000Y-19650000D03*
%TO.P,J3,3,Pin_3*%
%TO.N,Net-(J3-Pin_3)*%
X37750000Y-17650000D03*
D12*
%TO.P,J3,MP*%
%TO.N,N/C*%
X32000000Y-24000000D03*
X32000000Y-15300000D03*
%TD*%
D15*
%TO.N,Net-(D1-K)*%
X37750000Y-29807600D03*
X38168800Y-24053500D03*
X29331500Y-14723400D03*
%TO.N,Net-(J1-Pin_2)*%
X30019900Y-21169700D03*
X21500000Y-35565200D03*
%TO.N,Net-(D2-A)*%
X18500000Y-29537600D03*
X18342400Y-26197700D03*
X25467500Y-24610700D03*
%TO.N,Net-(J2-Pin_1)*%
X35175100Y-19950500D03*
X29437700Y-35899500D03*
%TO.N,Net-(J3-Pin_1)*%
X27338600Y-33186400D03*
X36351500Y-27899500D03*
%TO.N,Net-(J3-Pin_3)*%
X24469900Y-39107700D03*
X38449900Y-39972200D03*
%TO.N,Net-(D1-A)*%
X18500000Y-19486900D03*
%TO.N,Net-(D3-A)*%
X14694100Y-30504500D03*
%TD*%
D16*
%TO.N,Net-(D1-K)*%
X22969600Y-25000000D02*
X23100000Y-25000000D01*
X27400000Y-15837000D02*
X27500000Y-15837000D01*
X27500000Y-15837000D02*
X27500000Y-18500000D01*
X25500000Y-14000000D02*
X27400000Y-14000000D01*
X28217900Y-15837000D02*
X29331500Y-14723400D01*
X27400000Y-14000000D02*
X27400000Y-15837000D01*
X37750000Y-31150000D02*
X37750000Y-29807600D01*
X37750000Y-29807600D02*
X37750000Y-24472300D01*
X23100000Y-25000000D02*
X25600000Y-27500000D01*
X22969600Y-15000000D02*
X24500000Y-15000000D01*
X37750000Y-24472300D02*
X38168800Y-24053500D01*
X20500000Y-25000000D02*
X22969600Y-25000000D01*
X24500000Y-15000000D02*
X25500000Y-14000000D01*
X20500000Y-15000000D02*
X22969600Y-15000000D01*
X22969600Y-15000000D02*
X22969600Y-25000000D01*
X27500000Y-15837000D02*
X28217900Y-15837000D01*
%TO.N,Net-(J1-Pin_2)*%
X29451000Y-21049000D02*
X27500000Y-23000000D01*
X30019900Y-21169700D02*
X29571700Y-21169700D01*
X31840800Y-19348800D02*
X30019900Y-21169700D01*
X21500000Y-35565200D02*
X21500000Y-37500000D01*
X21534800Y-35565200D02*
X24550000Y-32550000D01*
X27500000Y-23000000D02*
X25600000Y-21100000D01*
X25600000Y-21100000D02*
X25600000Y-18500000D01*
X25600000Y-31500000D02*
X26631200Y-30468800D01*
X24550000Y-32550000D02*
X27500000Y-35500000D01*
X26631200Y-23868800D02*
X27500000Y-23000000D01*
X37448800Y-19348800D02*
X31840800Y-19348800D01*
X24550000Y-32550000D02*
X25600000Y-31500000D01*
X29571700Y-21169700D02*
X29451000Y-21049000D01*
X26631200Y-30468800D02*
X26631200Y-23868800D01*
X21500000Y-35565200D02*
X21534800Y-35565200D01*
X37750000Y-19650000D02*
X37448800Y-19348800D01*
%TO.N,Net-(D2-A)*%
X16500000Y-20000000D02*
X18342400Y-21842400D01*
X25467500Y-24610700D02*
X25600000Y-24478200D01*
X18500000Y-29537600D02*
X17981200Y-29018800D01*
X18342400Y-26197700D02*
X18342400Y-28657600D01*
X25600000Y-24478200D02*
X25600000Y-23000000D01*
X18342400Y-28657600D02*
X17981200Y-29018800D01*
X18342400Y-21842400D02*
X18342400Y-26197700D01*
X17981200Y-29018800D02*
X16500000Y-30500000D01*
%TO.N,Net-(J2-Pin_1)*%
X31801700Y-31801600D02*
X32343500Y-32343500D01*
X29437700Y-35899500D02*
X29437700Y-35330700D01*
X37750000Y-33150000D02*
X35175100Y-33150000D01*
X35175100Y-32384200D02*
X35175100Y-19950500D01*
X32384200Y-32384200D02*
X35175100Y-32384200D01*
X32384200Y-32384100D02*
X32384200Y-32384200D01*
X35175100Y-33150000D02*
X35175100Y-32384200D01*
X29437700Y-35330700D02*
X32384200Y-32384200D01*
X27500000Y-27500000D02*
X31801700Y-31801600D01*
X32343500Y-32343500D02*
X32384200Y-32384100D01*
%TO.N,Net-(J3-Pin_1)*%
X27338600Y-31661400D02*
X27338600Y-33186400D01*
X37750000Y-21650000D02*
X36351500Y-23048500D01*
X27500000Y-31500000D02*
X27338600Y-31661400D01*
X36351500Y-23048500D02*
X36351500Y-27899500D01*
%TO.N,Net-(J3-Pin_3)*%
X39839700Y-38582400D02*
X38449900Y-39972200D01*
X38323400Y-17650000D02*
X39839700Y-19166300D01*
X38323400Y-17650000D02*
X37750000Y-17650000D01*
X16100000Y-37500000D02*
X17707700Y-39107700D01*
X25600000Y-37977600D02*
X25600000Y-35500000D01*
X24469900Y-39107700D02*
X25600000Y-37977600D01*
X17707700Y-39107700D02*
X24469900Y-39107700D01*
X39839700Y-19166300D02*
X39839700Y-38582400D01*
%TO.N,Net-(D1-A)*%
X18500000Y-19486900D02*
X19243500Y-18743400D01*
X19743500Y-18243400D02*
X19243500Y-18743400D01*
X19243500Y-18743400D02*
X20500000Y-20000000D01*
X16500000Y-15000000D02*
X19743500Y-18243400D01*
%TO.N,Net-(D3-A)*%
X16500000Y-25000000D02*
X14694100Y-26805900D01*
X19259300Y-31740700D02*
X20500000Y-30500000D01*
X14694100Y-31176900D02*
X15257900Y-31740700D01*
X15257900Y-31740700D02*
X19259300Y-31740700D01*
X14694100Y-26805900D02*
X14694100Y-30504500D01*
X14694100Y-30504500D02*
X14694100Y-31176900D01*
%TD*%
M02*
