%TF.GenerationSoftware,KiCad,Pcbnew,9.0.6*%
%TF.CreationDate,2025-12-25T16:33:08+05:30*%
%TF.ProjectId,GitHub2,47697448-7562-4322-9e6b-696361645f70,rev?*%
%TF.SameCoordinates,Original*%
%TF.FileFunction,Legend,Bot*%
%TF.FilePolarity,Positive*%
%FSLAX46Y46*%
G04 Gerber Fmt 4.6, Leading zero omitted, Abs format (unit mm)*
G04 Created by KiCad (PCBNEW 9.0.6) date 2025-12-25 16:33:08*
%MOMM*%
%LPD*%
G01*
G04 APERTURE LIST*
%ADD10C,0.150000*%
%ADD11C,0.120000*%
G04 APERTURE END LIST*
D10*
X27192857Y-34179580D02*
X27240476Y-34227200D01*
X27240476Y-34227200D02*
X27383333Y-34274819D01*
X27383333Y-34274819D02*
X27478571Y-34274819D01*
X27478571Y-34274819D02*
X27621428Y-34227200D01*
X27621428Y-34227200D02*
X27716666Y-34131961D01*
X27716666Y-34131961D02*
X27764285Y-34036723D01*
X27764285Y-34036723D02*
X27811904Y-33846247D01*
X27811904Y-33846247D02*
X27811904Y-33703390D01*
X27811904Y-33703390D02*
X27764285Y-33512914D01*
X27764285Y-33512914D02*
X27716666Y-33417676D01*
X27716666Y-33417676D02*
X27621428Y-33322438D01*
X27621428Y-33322438D02*
X27478571Y-33274819D01*
X27478571Y-33274819D02*
X27383333Y-33274819D01*
X27383333Y-33274819D02*
X27240476Y-33322438D01*
X27240476Y-33322438D02*
X27192857Y-33370057D01*
X26240476Y-34274819D02*
X26811904Y-34274819D01*
X26526190Y-34274819D02*
X26526190Y-33274819D01*
X26526190Y-33274819D02*
X26621428Y-33417676D01*
X26621428Y-33417676D02*
X26716666Y-33512914D01*
X26716666Y-33512914D02*
X26811904Y-33560533D01*
X25859523Y-33370057D02*
X25811904Y-33322438D01*
X25811904Y-33322438D02*
X25716666Y-33274819D01*
X25716666Y-33274819D02*
X25478571Y-33274819D01*
X25478571Y-33274819D02*
X25383333Y-33322438D01*
X25383333Y-33322438D02*
X25335714Y-33370057D01*
X25335714Y-33370057D02*
X25288095Y-33465295D01*
X25288095Y-33465295D02*
X25288095Y-33560533D01*
X25288095Y-33560533D02*
X25335714Y-33703390D01*
X25335714Y-33703390D02*
X25907142Y-34274819D01*
X25907142Y-34274819D02*
X25288095Y-34274819D01*
X40154819Y-31816666D02*
X40869104Y-31816666D01*
X40869104Y-31816666D02*
X41011961Y-31769047D01*
X41011961Y-31769047D02*
X41107200Y-31673809D01*
X41107200Y-31673809D02*
X41154819Y-31530952D01*
X41154819Y-31530952D02*
X41154819Y-31435714D01*
X40250057Y-32245238D02*
X40202438Y-32292857D01*
X40202438Y-32292857D02*
X40154819Y-32388095D01*
X40154819Y-32388095D02*
X40154819Y-32626190D01*
X40154819Y-32626190D02*
X40202438Y-32721428D01*
X40202438Y-32721428D02*
X40250057Y-32769047D01*
X40250057Y-32769047D02*
X40345295Y-32816666D01*
X40345295Y-32816666D02*
X40440533Y-32816666D01*
X40440533Y-32816666D02*
X40583390Y-32769047D01*
X40583390Y-32769047D02*
X41154819Y-32197619D01*
X41154819Y-32197619D02*
X41154819Y-32816666D01*
X19238094Y-28454819D02*
X19238094Y-27454819D01*
X19238094Y-27454819D02*
X18999999Y-27454819D01*
X18999999Y-27454819D02*
X18857142Y-27502438D01*
X18857142Y-27502438D02*
X18761904Y-27597676D01*
X18761904Y-27597676D02*
X18714285Y-27692914D01*
X18714285Y-27692914D02*
X18666666Y-27883390D01*
X18666666Y-27883390D02*
X18666666Y-28026247D01*
X18666666Y-28026247D02*
X18714285Y-28216723D01*
X18714285Y-28216723D02*
X18761904Y-28311961D01*
X18761904Y-28311961D02*
X18857142Y-28407200D01*
X18857142Y-28407200D02*
X18999999Y-28454819D01*
X18999999Y-28454819D02*
X19238094Y-28454819D01*
X17809523Y-27788152D02*
X17809523Y-28454819D01*
X18047618Y-27407200D02*
X18285713Y-28121485D01*
X18285713Y-28121485D02*
X17666666Y-28121485D01*
X26716666Y-21679580D02*
X26764285Y-21727200D01*
X26764285Y-21727200D02*
X26907142Y-21774819D01*
X26907142Y-21774819D02*
X27002380Y-21774819D01*
X27002380Y-21774819D02*
X27145237Y-21727200D01*
X27145237Y-21727200D02*
X27240475Y-21631961D01*
X27240475Y-21631961D02*
X27288094Y-21536723D01*
X27288094Y-21536723D02*
X27335713Y-21346247D01*
X27335713Y-21346247D02*
X27335713Y-21203390D01*
X27335713Y-21203390D02*
X27288094Y-21012914D01*
X27288094Y-21012914D02*
X27240475Y-20917676D01*
X27240475Y-20917676D02*
X27145237Y-20822438D01*
X27145237Y-20822438D02*
X27002380Y-20774819D01*
X27002380Y-20774819D02*
X26907142Y-20774819D01*
X26907142Y-20774819D02*
X26764285Y-20822438D01*
X26764285Y-20822438D02*
X26716666Y-20870057D01*
X25859523Y-20774819D02*
X26049999Y-20774819D01*
X26049999Y-20774819D02*
X26145237Y-20822438D01*
X26145237Y-20822438D02*
X26192856Y-20870057D01*
X26192856Y-20870057D02*
X26288094Y-21012914D01*
X26288094Y-21012914D02*
X26335713Y-21203390D01*
X26335713Y-21203390D02*
X26335713Y-21584342D01*
X26335713Y-21584342D02*
X26288094Y-21679580D01*
X26288094Y-21679580D02*
X26240475Y-21727200D01*
X26240475Y-21727200D02*
X26145237Y-21774819D01*
X26145237Y-21774819D02*
X25954761Y-21774819D01*
X25954761Y-21774819D02*
X25859523Y-21727200D01*
X25859523Y-21727200D02*
X25811904Y-21679580D01*
X25811904Y-21679580D02*
X25764285Y-21584342D01*
X25764285Y-21584342D02*
X25764285Y-21346247D01*
X25764285Y-21346247D02*
X25811904Y-21251009D01*
X25811904Y-21251009D02*
X25859523Y-21203390D01*
X25859523Y-21203390D02*
X25954761Y-21155771D01*
X25954761Y-21155771D02*
X26145237Y-21155771D01*
X26145237Y-21155771D02*
X26240475Y-21203390D01*
X26240475Y-21203390D02*
X26288094Y-21251009D01*
X26288094Y-21251009D02*
X26335713Y-21346247D01*
X18966666Y-33509580D02*
X19014285Y-33557200D01*
X19014285Y-33557200D02*
X19157142Y-33604819D01*
X19157142Y-33604819D02*
X19252380Y-33604819D01*
X19252380Y-33604819D02*
X19395237Y-33557200D01*
X19395237Y-33557200D02*
X19490475Y-33461961D01*
X19490475Y-33461961D02*
X19538094Y-33366723D01*
X19538094Y-33366723D02*
X19585713Y-33176247D01*
X19585713Y-33176247D02*
X19585713Y-33033390D01*
X19585713Y-33033390D02*
X19538094Y-32842914D01*
X19538094Y-32842914D02*
X19490475Y-32747676D01*
X19490475Y-32747676D02*
X19395237Y-32652438D01*
X19395237Y-32652438D02*
X19252380Y-32604819D01*
X19252380Y-32604819D02*
X19157142Y-32604819D01*
X19157142Y-32604819D02*
X19014285Y-32652438D01*
X19014285Y-32652438D02*
X18966666Y-32700057D01*
X18490475Y-33604819D02*
X18299999Y-33604819D01*
X18299999Y-33604819D02*
X18204761Y-33557200D01*
X18204761Y-33557200D02*
X18157142Y-33509580D01*
X18157142Y-33509580D02*
X18061904Y-33366723D01*
X18061904Y-33366723D02*
X18014285Y-33176247D01*
X18014285Y-33176247D02*
X18014285Y-32795295D01*
X18014285Y-32795295D02*
X18061904Y-32700057D01*
X18061904Y-32700057D02*
X18109523Y-32652438D01*
X18109523Y-32652438D02*
X18204761Y-32604819D01*
X18204761Y-32604819D02*
X18395237Y-32604819D01*
X18395237Y-32604819D02*
X18490475Y-32652438D01*
X18490475Y-32652438D02*
X18538094Y-32700057D01*
X18538094Y-32700057D02*
X18585713Y-32795295D01*
X18585713Y-32795295D02*
X18585713Y-33033390D01*
X18585713Y-33033390D02*
X18538094Y-33128628D01*
X18538094Y-33128628D02*
X18490475Y-33176247D01*
X18490475Y-33176247D02*
X18395237Y-33223866D01*
X18395237Y-33223866D02*
X18204761Y-33223866D01*
X18204761Y-33223866D02*
X18109523Y-33176247D01*
X18109523Y-33176247D02*
X18061904Y-33128628D01*
X18061904Y-33128628D02*
X18014285Y-33033390D01*
X27192857Y-26179580D02*
X27240476Y-26227200D01*
X27240476Y-26227200D02*
X27383333Y-26274819D01*
X27383333Y-26274819D02*
X27478571Y-26274819D01*
X27478571Y-26274819D02*
X27621428Y-26227200D01*
X27621428Y-26227200D02*
X27716666Y-26131961D01*
X27716666Y-26131961D02*
X27764285Y-26036723D01*
X27764285Y-26036723D02*
X27811904Y-25846247D01*
X27811904Y-25846247D02*
X27811904Y-25703390D01*
X27811904Y-25703390D02*
X27764285Y-25512914D01*
X27764285Y-25512914D02*
X27716666Y-25417676D01*
X27716666Y-25417676D02*
X27621428Y-25322438D01*
X27621428Y-25322438D02*
X27478571Y-25274819D01*
X27478571Y-25274819D02*
X27383333Y-25274819D01*
X27383333Y-25274819D02*
X27240476Y-25322438D01*
X27240476Y-25322438D02*
X27192857Y-25370057D01*
X26240476Y-26274819D02*
X26811904Y-26274819D01*
X26526190Y-26274819D02*
X26526190Y-25274819D01*
X26526190Y-25274819D02*
X26621428Y-25417676D01*
X26621428Y-25417676D02*
X26716666Y-25512914D01*
X26716666Y-25512914D02*
X26811904Y-25560533D01*
X25621428Y-25274819D02*
X25526190Y-25274819D01*
X25526190Y-25274819D02*
X25430952Y-25322438D01*
X25430952Y-25322438D02*
X25383333Y-25370057D01*
X25383333Y-25370057D02*
X25335714Y-25465295D01*
X25335714Y-25465295D02*
X25288095Y-25655771D01*
X25288095Y-25655771D02*
X25288095Y-25893866D01*
X25288095Y-25893866D02*
X25335714Y-26084342D01*
X25335714Y-26084342D02*
X25383333Y-26179580D01*
X25383333Y-26179580D02*
X25430952Y-26227200D01*
X25430952Y-26227200D02*
X25526190Y-26274819D01*
X25526190Y-26274819D02*
X25621428Y-26274819D01*
X25621428Y-26274819D02*
X25716666Y-26227200D01*
X25716666Y-26227200D02*
X25764285Y-26179580D01*
X25764285Y-26179580D02*
X25811904Y-26084342D01*
X25811904Y-26084342D02*
X25859523Y-25893866D01*
X25859523Y-25893866D02*
X25859523Y-25655771D01*
X25859523Y-25655771D02*
X25811904Y-25465295D01*
X25811904Y-25465295D02*
X25764285Y-25370057D01*
X25764285Y-25370057D02*
X25716666Y-25322438D01*
X25716666Y-25322438D02*
X25621428Y-25274819D01*
X27192857Y-30179580D02*
X27240476Y-30227200D01*
X27240476Y-30227200D02*
X27383333Y-30274819D01*
X27383333Y-30274819D02*
X27478571Y-30274819D01*
X27478571Y-30274819D02*
X27621428Y-30227200D01*
X27621428Y-30227200D02*
X27716666Y-30131961D01*
X27716666Y-30131961D02*
X27764285Y-30036723D01*
X27764285Y-30036723D02*
X27811904Y-29846247D01*
X27811904Y-29846247D02*
X27811904Y-29703390D01*
X27811904Y-29703390D02*
X27764285Y-29512914D01*
X27764285Y-29512914D02*
X27716666Y-29417676D01*
X27716666Y-29417676D02*
X27621428Y-29322438D01*
X27621428Y-29322438D02*
X27478571Y-29274819D01*
X27478571Y-29274819D02*
X27383333Y-29274819D01*
X27383333Y-29274819D02*
X27240476Y-29322438D01*
X27240476Y-29322438D02*
X27192857Y-29370057D01*
X26240476Y-30274819D02*
X26811904Y-30274819D01*
X26526190Y-30274819D02*
X26526190Y-29274819D01*
X26526190Y-29274819D02*
X26621428Y-29417676D01*
X26621428Y-29417676D02*
X26716666Y-29512914D01*
X26716666Y-29512914D02*
X26811904Y-29560533D01*
X25288095Y-30274819D02*
X25859523Y-30274819D01*
X25573809Y-30274819D02*
X25573809Y-29274819D01*
X25573809Y-29274819D02*
X25669047Y-29417676D01*
X25669047Y-29417676D02*
X25764285Y-29512914D01*
X25764285Y-29512914D02*
X25859523Y-29560533D01*
X26716666Y-17179580D02*
X26764285Y-17227200D01*
X26764285Y-17227200D02*
X26907142Y-17274819D01*
X26907142Y-17274819D02*
X27002380Y-17274819D01*
X27002380Y-17274819D02*
X27145237Y-17227200D01*
X27145237Y-17227200D02*
X27240475Y-17131961D01*
X27240475Y-17131961D02*
X27288094Y-17036723D01*
X27288094Y-17036723D02*
X27335713Y-16846247D01*
X27335713Y-16846247D02*
X27335713Y-16703390D01*
X27335713Y-16703390D02*
X27288094Y-16512914D01*
X27288094Y-16512914D02*
X27240475Y-16417676D01*
X27240475Y-16417676D02*
X27145237Y-16322438D01*
X27145237Y-16322438D02*
X27002380Y-16274819D01*
X27002380Y-16274819D02*
X26907142Y-16274819D01*
X26907142Y-16274819D02*
X26764285Y-16322438D01*
X26764285Y-16322438D02*
X26716666Y-16370057D01*
X25811904Y-16274819D02*
X26288094Y-16274819D01*
X26288094Y-16274819D02*
X26335713Y-16751009D01*
X26335713Y-16751009D02*
X26288094Y-16703390D01*
X26288094Y-16703390D02*
X26192856Y-16655771D01*
X26192856Y-16655771D02*
X25954761Y-16655771D01*
X25954761Y-16655771D02*
X25859523Y-16703390D01*
X25859523Y-16703390D02*
X25811904Y-16751009D01*
X25811904Y-16751009D02*
X25764285Y-16846247D01*
X25764285Y-16846247D02*
X25764285Y-17084342D01*
X25764285Y-17084342D02*
X25811904Y-17179580D01*
X25811904Y-17179580D02*
X25859523Y-17227200D01*
X25859523Y-17227200D02*
X25954761Y-17274819D01*
X25954761Y-17274819D02*
X26192856Y-17274819D01*
X26192856Y-17274819D02*
X26288094Y-17227200D01*
X26288094Y-17227200D02*
X26335713Y-17179580D01*
X29666666Y-14359580D02*
X29714285Y-14407200D01*
X29714285Y-14407200D02*
X29857142Y-14454819D01*
X29857142Y-14454819D02*
X29952380Y-14454819D01*
X29952380Y-14454819D02*
X30095237Y-14407200D01*
X30095237Y-14407200D02*
X30190475Y-14311961D01*
X30190475Y-14311961D02*
X30238094Y-14216723D01*
X30238094Y-14216723D02*
X30285713Y-14026247D01*
X30285713Y-14026247D02*
X30285713Y-13883390D01*
X30285713Y-13883390D02*
X30238094Y-13692914D01*
X30238094Y-13692914D02*
X30190475Y-13597676D01*
X30190475Y-13597676D02*
X30095237Y-13502438D01*
X30095237Y-13502438D02*
X29952380Y-13454819D01*
X29952380Y-13454819D02*
X29857142Y-13454819D01*
X29857142Y-13454819D02*
X29714285Y-13502438D01*
X29714285Y-13502438D02*
X29666666Y-13550057D01*
X28809523Y-13788152D02*
X28809523Y-14454819D01*
X29047618Y-13407200D02*
X29285713Y-14121485D01*
X29285713Y-14121485D02*
X28666666Y-14121485D01*
D11*
%TO.C,C12*%
X26811252Y-34765000D02*
X26288748Y-34765000D01*
X26811252Y-36235000D02*
X26288748Y-36235000D01*
%TO.C,J2*%
X30390000Y-34490000D02*
X30390000Y-29810000D01*
X33960000Y-28090000D02*
X38210000Y-28090000D01*
X33960000Y-36210000D02*
X38210000Y-36210000D01*
X36610000Y-29110000D02*
X36610000Y-30390000D01*
X36610000Y-33910000D02*
X39500000Y-33910000D01*
X36610000Y-35190000D02*
X36610000Y-33910000D01*
X38210000Y-28090000D02*
X38210000Y-29110000D01*
X38210000Y-29110000D02*
X36610000Y-29110000D01*
X38210000Y-35190000D02*
X36610000Y-35190000D01*
X38210000Y-36210000D02*
X38210000Y-35190000D01*
%TO.C,D4*%
X22010000Y-28850000D02*
X16500000Y-28850000D01*
X22010000Y-28850000D02*
X22010000Y-32150000D01*
X22010000Y-32150000D02*
X16500000Y-32150000D01*
%TO.C,C6*%
X26811252Y-22265000D02*
X26288748Y-22265000D01*
X26811252Y-23735000D02*
X26288748Y-23735000D01*
%TO.C,C9*%
X15390000Y-34090000D02*
X15390000Y-36440000D01*
X15390000Y-40910000D02*
X15390000Y-38560000D01*
X21145563Y-34090000D02*
X15390000Y-34090000D01*
X21145563Y-40910000D02*
X15390000Y-40910000D01*
X22210000Y-35154437D02*
X21145563Y-34090000D01*
X22210000Y-35154437D02*
X22210000Y-36440000D01*
X22210000Y-39845563D02*
X21145563Y-40910000D01*
X22210000Y-39845563D02*
X22210000Y-38560000D01*
X22843750Y-35258750D02*
X22843750Y-36046250D01*
X23237500Y-35652500D02*
X22450000Y-35652500D01*
%TO.C,C10*%
X26811252Y-26765000D02*
X26288748Y-26765000D01*
X26811252Y-28235000D02*
X26288748Y-28235000D01*
%TO.C,C11*%
X26811252Y-30765000D02*
X26288748Y-30765000D01*
X26811252Y-32235000D02*
X26288748Y-32235000D01*
%TO.C,C5*%
X26811252Y-17765000D02*
X26288748Y-17765000D01*
X26811252Y-19235000D02*
X26288748Y-19235000D01*
%TO.C,C4*%
X26711252Y-13265000D02*
X26188748Y-13265000D01*
X26711252Y-14735000D02*
X26188748Y-14735000D01*
%TO.C,D3*%
X22010000Y-23350000D02*
X16500000Y-23350000D01*
X22010000Y-23350000D02*
X22010000Y-26650000D01*
X22010000Y-26650000D02*
X16500000Y-26650000D01*
%TO.C,D1*%
X22010000Y-13350000D02*
X16500000Y-13350000D01*
X22010000Y-13350000D02*
X22010000Y-16650000D01*
X22010000Y-16650000D02*
X16500000Y-16650000D01*
%TO.C,D2*%
X22010000Y-18350000D02*
X16500000Y-18350000D01*
X22010000Y-18350000D02*
X22010000Y-21650000D01*
X22010000Y-21650000D02*
X16500000Y-21650000D01*
%TO.C,J3*%
X30390000Y-22990000D02*
X30390000Y-16310000D01*
X33960000Y-14590000D02*
X38210000Y-14590000D01*
X33960000Y-24710000D02*
X38210000Y-24710000D01*
X36610000Y-15610000D02*
X36610000Y-16890000D01*
X36610000Y-22410000D02*
X39500000Y-22410000D01*
X36610000Y-23690000D02*
X36610000Y-22410000D01*
X38210000Y-14590000D02*
X38210000Y-15610000D01*
X38210000Y-15610000D02*
X36610000Y-15610000D01*
X38210000Y-23690000D02*
X36610000Y-23690000D01*
X38210000Y-24710000D02*
X38210000Y-23690000D01*
%TD*%
M02*
