%TF.GenerationSoftware,KiCad,Pcbnew,9.0.6*%
%TF.CreationDate,2025-12-25T16:33:08+05:30*%
%TF.ProjectId,GitHub2,47697448-7562-4322-9e6b-696361645f70,rev?*%
%TF.SameCoordinates,Original*%
%TF.FileFunction,Legend,Top*%
%TF.FilePolarity,Positive*%
%FSLAX46Y46*%
G04 Gerber Fmt 4.6, Leading zero omitted, Abs format (unit mm)*
G04 Created by KiCad (PCBNEW 9.0.6) date 2025-12-25 16:33:08*
%MOMM*%
%LPD*%
G01*
G04 APERTURE LIST*
%ADD10C,0.150000*%
%ADD11C,0.120000*%
G04 APERTURE END LIST*
D10*
X43738095Y-20429819D02*
X43738095Y-21239342D01*
X43738095Y-21239342D02*
X43785714Y-21334580D01*
X43785714Y-21334580D02*
X43833333Y-21382200D01*
X43833333Y-21382200D02*
X43928571Y-21429819D01*
X43928571Y-21429819D02*
X44119047Y-21429819D01*
X44119047Y-21429819D02*
X44214285Y-21382200D01*
X44214285Y-21382200D02*
X44261904Y-21334580D01*
X44261904Y-21334580D02*
X44309523Y-21239342D01*
X44309523Y-21239342D02*
X44309523Y-20429819D01*
X45309523Y-21429819D02*
X44738095Y-21429819D01*
X45023809Y-21429819D02*
X45023809Y-20429819D01*
X45023809Y-20429819D02*
X44928571Y-20572676D01*
X44928571Y-20572676D02*
X44833333Y-20667914D01*
X44833333Y-20667914D02*
X44738095Y-20715533D01*
X40278095Y-21734819D02*
X40278095Y-22544342D01*
X40278095Y-22544342D02*
X40325714Y-22639580D01*
X40325714Y-22639580D02*
X40373333Y-22687200D01*
X40373333Y-22687200D02*
X40468571Y-22734819D01*
X40468571Y-22734819D02*
X40659047Y-22734819D01*
X40659047Y-22734819D02*
X40754285Y-22687200D01*
X40754285Y-22687200D02*
X40801904Y-22639580D01*
X40801904Y-22639580D02*
X40849523Y-22544342D01*
X40849523Y-22544342D02*
X40849523Y-21734819D01*
X41278095Y-21830057D02*
X41325714Y-21782438D01*
X41325714Y-21782438D02*
X41420952Y-21734819D01*
X41420952Y-21734819D02*
X41659047Y-21734819D01*
X41659047Y-21734819D02*
X41754285Y-21782438D01*
X41754285Y-21782438D02*
X41801904Y-21830057D01*
X41801904Y-21830057D02*
X41849523Y-21925295D01*
X41849523Y-21925295D02*
X41849523Y-22020533D01*
X41849523Y-22020533D02*
X41801904Y-22163390D01*
X41801904Y-22163390D02*
X41230476Y-22734819D01*
X41230476Y-22734819D02*
X41849523Y-22734819D01*
X18407463Y-14960550D02*
X18359844Y-15008170D01*
X18359844Y-15008170D02*
X18216987Y-15055789D01*
X18216987Y-15055789D02*
X18121749Y-15055789D01*
X18121749Y-15055789D02*
X17978892Y-15008170D01*
X17978892Y-15008170D02*
X17883654Y-14912931D01*
X17883654Y-14912931D02*
X17836035Y-14817693D01*
X17836035Y-14817693D02*
X17788416Y-14627217D01*
X17788416Y-14627217D02*
X17788416Y-14484360D01*
X17788416Y-14484360D02*
X17836035Y-14293884D01*
X17836035Y-14293884D02*
X17883654Y-14198646D01*
X17883654Y-14198646D02*
X17978892Y-14103408D01*
X17978892Y-14103408D02*
X18121749Y-14055789D01*
X18121749Y-14055789D02*
X18216987Y-14055789D01*
X18216987Y-14055789D02*
X18359844Y-14103408D01*
X18359844Y-14103408D02*
X18407463Y-14151027D01*
X19359844Y-15055789D02*
X18788416Y-15055789D01*
X19074130Y-15055789D02*
X19074130Y-14055789D01*
X19074130Y-14055789D02*
X18978892Y-14198646D01*
X18978892Y-14198646D02*
X18883654Y-14293884D01*
X18883654Y-14293884D02*
X18788416Y-14341503D01*
X29333333Y-23009580D02*
X29285714Y-23057200D01*
X29285714Y-23057200D02*
X29142857Y-23104819D01*
X29142857Y-23104819D02*
X29047619Y-23104819D01*
X29047619Y-23104819D02*
X28904762Y-23057200D01*
X28904762Y-23057200D02*
X28809524Y-22961961D01*
X28809524Y-22961961D02*
X28761905Y-22866723D01*
X28761905Y-22866723D02*
X28714286Y-22676247D01*
X28714286Y-22676247D02*
X28714286Y-22533390D01*
X28714286Y-22533390D02*
X28761905Y-22342914D01*
X28761905Y-22342914D02*
X28809524Y-22247676D01*
X28809524Y-22247676D02*
X28904762Y-22152438D01*
X28904762Y-22152438D02*
X29047619Y-22104819D01*
X29047619Y-22104819D02*
X29142857Y-22104819D01*
X29142857Y-22104819D02*
X29285714Y-22152438D01*
X29285714Y-22152438D02*
X29333333Y-22200057D01*
X29666667Y-22104819D02*
X30285714Y-22104819D01*
X30285714Y-22104819D02*
X29952381Y-22485771D01*
X29952381Y-22485771D02*
X30095238Y-22485771D01*
X30095238Y-22485771D02*
X30190476Y-22533390D01*
X30190476Y-22533390D02*
X30238095Y-22581009D01*
X30238095Y-22581009D02*
X30285714Y-22676247D01*
X30285714Y-22676247D02*
X30285714Y-22914342D01*
X30285714Y-22914342D02*
X30238095Y-23009580D01*
X30238095Y-23009580D02*
X30190476Y-23057200D01*
X30190476Y-23057200D02*
X30095238Y-23104819D01*
X30095238Y-23104819D02*
X29809524Y-23104819D01*
X29809524Y-23104819D02*
X29714286Y-23057200D01*
X29714286Y-23057200D02*
X29666667Y-23009580D01*
X18633333Y-33509580D02*
X18585714Y-33557200D01*
X18585714Y-33557200D02*
X18442857Y-33604819D01*
X18442857Y-33604819D02*
X18347619Y-33604819D01*
X18347619Y-33604819D02*
X18204762Y-33557200D01*
X18204762Y-33557200D02*
X18109524Y-33461961D01*
X18109524Y-33461961D02*
X18061905Y-33366723D01*
X18061905Y-33366723D02*
X18014286Y-33176247D01*
X18014286Y-33176247D02*
X18014286Y-33033390D01*
X18014286Y-33033390D02*
X18061905Y-32842914D01*
X18061905Y-32842914D02*
X18109524Y-32747676D01*
X18109524Y-32747676D02*
X18204762Y-32652438D01*
X18204762Y-32652438D02*
X18347619Y-32604819D01*
X18347619Y-32604819D02*
X18442857Y-32604819D01*
X18442857Y-32604819D02*
X18585714Y-32652438D01*
X18585714Y-32652438D02*
X18633333Y-32700057D01*
X19204762Y-33033390D02*
X19109524Y-32985771D01*
X19109524Y-32985771D02*
X19061905Y-32938152D01*
X19061905Y-32938152D02*
X19014286Y-32842914D01*
X19014286Y-32842914D02*
X19014286Y-32795295D01*
X19014286Y-32795295D02*
X19061905Y-32700057D01*
X19061905Y-32700057D02*
X19109524Y-32652438D01*
X19109524Y-32652438D02*
X19204762Y-32604819D01*
X19204762Y-32604819D02*
X19395238Y-32604819D01*
X19395238Y-32604819D02*
X19490476Y-32652438D01*
X19490476Y-32652438D02*
X19538095Y-32700057D01*
X19538095Y-32700057D02*
X19585714Y-32795295D01*
X19585714Y-32795295D02*
X19585714Y-32842914D01*
X19585714Y-32842914D02*
X19538095Y-32938152D01*
X19538095Y-32938152D02*
X19490476Y-32985771D01*
X19490476Y-32985771D02*
X19395238Y-33033390D01*
X19395238Y-33033390D02*
X19204762Y-33033390D01*
X19204762Y-33033390D02*
X19109524Y-33081009D01*
X19109524Y-33081009D02*
X19061905Y-33128628D01*
X19061905Y-33128628D02*
X19014286Y-33223866D01*
X19014286Y-33223866D02*
X19014286Y-33414342D01*
X19014286Y-33414342D02*
X19061905Y-33509580D01*
X19061905Y-33509580D02*
X19109524Y-33557200D01*
X19109524Y-33557200D02*
X19204762Y-33604819D01*
X19204762Y-33604819D02*
X19395238Y-33604819D01*
X19395238Y-33604819D02*
X19490476Y-33557200D01*
X19490476Y-33557200D02*
X19538095Y-33509580D01*
X19538095Y-33509580D02*
X19585714Y-33414342D01*
X19585714Y-33414342D02*
X19585714Y-33223866D01*
X19585714Y-33223866D02*
X19538095Y-33128628D01*
X19538095Y-33128628D02*
X19490476Y-33081009D01*
X19490476Y-33081009D02*
X19395238Y-33033390D01*
X40278095Y-32234819D02*
X40278095Y-33044342D01*
X40278095Y-33044342D02*
X40325714Y-33139580D01*
X40325714Y-33139580D02*
X40373333Y-33187200D01*
X40373333Y-33187200D02*
X40468571Y-33234819D01*
X40468571Y-33234819D02*
X40659047Y-33234819D01*
X40659047Y-33234819D02*
X40754285Y-33187200D01*
X40754285Y-33187200D02*
X40801904Y-33139580D01*
X40801904Y-33139580D02*
X40849523Y-33044342D01*
X40849523Y-33044342D02*
X40849523Y-32234819D01*
X41230476Y-32234819D02*
X41849523Y-32234819D01*
X41849523Y-32234819D02*
X41516190Y-32615771D01*
X41516190Y-32615771D02*
X41659047Y-32615771D01*
X41659047Y-32615771D02*
X41754285Y-32663390D01*
X41754285Y-32663390D02*
X41801904Y-32711009D01*
X41801904Y-32711009D02*
X41849523Y-32806247D01*
X41849523Y-32806247D02*
X41849523Y-33044342D01*
X41849523Y-33044342D02*
X41801904Y-33139580D01*
X41801904Y-33139580D02*
X41754285Y-33187200D01*
X41754285Y-33187200D02*
X41659047Y-33234819D01*
X41659047Y-33234819D02*
X41373333Y-33234819D01*
X41373333Y-33234819D02*
X41278095Y-33187200D01*
X41278095Y-33187200D02*
X41230476Y-33139580D01*
X28833333Y-33509580D02*
X28785714Y-33557200D01*
X28785714Y-33557200D02*
X28642857Y-33604819D01*
X28642857Y-33604819D02*
X28547619Y-33604819D01*
X28547619Y-33604819D02*
X28404762Y-33557200D01*
X28404762Y-33557200D02*
X28309524Y-33461961D01*
X28309524Y-33461961D02*
X28261905Y-33366723D01*
X28261905Y-33366723D02*
X28214286Y-33176247D01*
X28214286Y-33176247D02*
X28214286Y-33033390D01*
X28214286Y-33033390D02*
X28261905Y-32842914D01*
X28261905Y-32842914D02*
X28309524Y-32747676D01*
X28309524Y-32747676D02*
X28404762Y-32652438D01*
X28404762Y-32652438D02*
X28547619Y-32604819D01*
X28547619Y-32604819D02*
X28642857Y-32604819D01*
X28642857Y-32604819D02*
X28785714Y-32652438D01*
X28785714Y-32652438D02*
X28833333Y-32700057D01*
X29166667Y-32604819D02*
X29833333Y-32604819D01*
X29833333Y-32604819D02*
X29404762Y-33604819D01*
X28333333Y-18859580D02*
X28285714Y-18907200D01*
X28285714Y-18907200D02*
X28142857Y-18954819D01*
X28142857Y-18954819D02*
X28047619Y-18954819D01*
X28047619Y-18954819D02*
X27904762Y-18907200D01*
X27904762Y-18907200D02*
X27809524Y-18811961D01*
X27809524Y-18811961D02*
X27761905Y-18716723D01*
X27761905Y-18716723D02*
X27714286Y-18526247D01*
X27714286Y-18526247D02*
X27714286Y-18383390D01*
X27714286Y-18383390D02*
X27761905Y-18192914D01*
X27761905Y-18192914D02*
X27809524Y-18097676D01*
X27809524Y-18097676D02*
X27904762Y-18002438D01*
X27904762Y-18002438D02*
X28047619Y-17954819D01*
X28047619Y-17954819D02*
X28142857Y-17954819D01*
X28142857Y-17954819D02*
X28285714Y-18002438D01*
X28285714Y-18002438D02*
X28333333Y-18050057D01*
X28714286Y-18050057D02*
X28761905Y-18002438D01*
X28761905Y-18002438D02*
X28857143Y-17954819D01*
X28857143Y-17954819D02*
X29095238Y-17954819D01*
X29095238Y-17954819D02*
X29190476Y-18002438D01*
X29190476Y-18002438D02*
X29238095Y-18050057D01*
X29238095Y-18050057D02*
X29285714Y-18145295D01*
X29285714Y-18145295D02*
X29285714Y-18240533D01*
X29285714Y-18240533D02*
X29238095Y-18383390D01*
X29238095Y-18383390D02*
X28666667Y-18954819D01*
X28666667Y-18954819D02*
X29285714Y-18954819D01*
X12954819Y-31333333D02*
X13669104Y-31333333D01*
X13669104Y-31333333D02*
X13811961Y-31380952D01*
X13811961Y-31380952D02*
X13907200Y-31476190D01*
X13907200Y-31476190D02*
X13954819Y-31619047D01*
X13954819Y-31619047D02*
X13954819Y-31714285D01*
X13954819Y-30333333D02*
X13954819Y-30904761D01*
X13954819Y-30619047D02*
X12954819Y-30619047D01*
X12954819Y-30619047D02*
X13097676Y-30714285D01*
X13097676Y-30714285D02*
X13192914Y-30809523D01*
X13192914Y-30809523D02*
X13240533Y-30904761D01*
D11*
%TO.C,U1*%
X37690000Y-13050000D02*
X37690000Y-13320000D01*
X37690000Y-19950000D02*
X37690000Y-19680000D01*
X44110000Y-13050000D02*
X37690000Y-13050000D01*
X44110000Y-19950000D02*
X37690000Y-19950000D01*
X35960000Y-13360000D02*
X35620000Y-12890000D01*
X36300000Y-12890000D01*
X35960000Y-13360000D01*
G36*
X35960000Y-13360000D02*
G01*
X35620000Y-12890000D01*
X36300000Y-12890000D01*
X35960000Y-13360000D01*
G37*
%TO.C,U2*%
X37730000Y-23330000D02*
X37730000Y-23600000D01*
X37730000Y-30230000D02*
X37730000Y-29960000D01*
X44150000Y-23330000D02*
X37730000Y-23330000D01*
X44150000Y-30230000D02*
X37730000Y-30230000D01*
X36000000Y-23640000D02*
X35660000Y-23170000D01*
X36340000Y-23170000D01*
X36000000Y-23640000D01*
G36*
X36000000Y-23640000D02*
G01*
X35660000Y-23170000D01*
X36340000Y-23170000D01*
X36000000Y-23640000D01*
G37*
%TO.C,C1*%
X14062500Y-14652500D02*
X14850000Y-14652500D01*
X14456250Y-14258750D02*
X14456250Y-15046250D01*
X15090000Y-14154437D02*
X15090000Y-15440000D01*
X15090000Y-14154437D02*
X16154437Y-13090000D01*
X15090000Y-18845563D02*
X15090000Y-17560000D01*
X15090000Y-18845563D02*
X16154437Y-19910000D01*
X16154437Y-13090000D02*
X21910000Y-13090000D01*
X16154437Y-19910000D02*
X21910000Y-19910000D01*
X21910000Y-13090000D02*
X21910000Y-15440000D01*
X21910000Y-19910000D02*
X21910000Y-17560000D01*
%TO.C,C3*%
X25062500Y-25152500D02*
X25850000Y-25152500D01*
X25456250Y-24758750D02*
X25456250Y-25546250D01*
X26090000Y-24654437D02*
X26090000Y-25940000D01*
X26090000Y-24654437D02*
X27154437Y-23590000D01*
X26090000Y-29345563D02*
X26090000Y-28060000D01*
X26090000Y-29345563D02*
X27154437Y-30410000D01*
X27154437Y-23590000D02*
X32910000Y-23590000D01*
X27154437Y-30410000D02*
X32910000Y-30410000D01*
X32910000Y-23590000D02*
X32910000Y-25940000D01*
X32910000Y-30410000D02*
X32910000Y-28060000D01*
%TO.C,C8*%
X14362500Y-35652500D02*
X15150000Y-35652500D01*
X14756250Y-35258750D02*
X14756250Y-36046250D01*
X15390000Y-35154437D02*
X15390000Y-36440000D01*
X15390000Y-35154437D02*
X16454437Y-34090000D01*
X15390000Y-39845563D02*
X15390000Y-38560000D01*
X15390000Y-39845563D02*
X16454437Y-40910000D01*
X16454437Y-34090000D02*
X22210000Y-34090000D01*
X16454437Y-40910000D02*
X22210000Y-40910000D01*
X22210000Y-34090000D02*
X22210000Y-36440000D01*
X22210000Y-40910000D02*
X22210000Y-38560000D01*
%TO.C,U3*%
X37730000Y-33830000D02*
X37730000Y-34100000D01*
X37730000Y-40730000D02*
X37730000Y-40460000D01*
X44150000Y-33830000D02*
X37730000Y-33830000D01*
X44150000Y-40730000D02*
X37730000Y-40730000D01*
X36000000Y-34140000D02*
X35660000Y-33670000D01*
X36340000Y-33670000D01*
X36000000Y-34140000D01*
G36*
X36000000Y-34140000D02*
G01*
X35660000Y-33670000D01*
X36340000Y-33670000D01*
X36000000Y-34140000D01*
G37*
%TO.C,C7*%
X24562500Y-35652500D02*
X25350000Y-35652500D01*
X24956250Y-35258750D02*
X24956250Y-36046250D01*
X25590000Y-35154437D02*
X25590000Y-36440000D01*
X25590000Y-35154437D02*
X26654437Y-34090000D01*
X25590000Y-39845563D02*
X25590000Y-38560000D01*
X25590000Y-39845563D02*
X26654437Y-40910000D01*
X26654437Y-34090000D02*
X32410000Y-34090000D01*
X26654437Y-40910000D02*
X32410000Y-40910000D01*
X32410000Y-34090000D02*
X32410000Y-36440000D01*
X32410000Y-40910000D02*
X32410000Y-38560000D01*
%TO.C,C2*%
X24062500Y-14652500D02*
X24850000Y-14652500D01*
X24456250Y-14258750D02*
X24456250Y-15046250D01*
X25090000Y-14154437D02*
X25090000Y-15440000D01*
X25090000Y-14154437D02*
X26154437Y-13090000D01*
X25090000Y-18845563D02*
X25090000Y-17560000D01*
X25090000Y-18845563D02*
X26154437Y-19910000D01*
X26154437Y-13090000D02*
X31910000Y-13090000D01*
X26154437Y-19910000D02*
X31910000Y-19910000D01*
X31910000Y-13090000D02*
X31910000Y-15440000D01*
X31910000Y-19910000D02*
X31910000Y-17560000D01*
%TO.C,J1*%
X14690000Y-21940000D02*
X14690000Y-22960000D01*
X14690000Y-22960000D02*
X16290000Y-22960000D01*
X14690000Y-31040000D02*
X16290000Y-31040000D01*
X14690000Y-32060000D02*
X14690000Y-31040000D01*
X16290000Y-22960000D02*
X16290000Y-24240000D01*
X16290000Y-29760000D02*
X13400000Y-29760000D01*
X16290000Y-31040000D02*
X16290000Y-29760000D01*
X18940000Y-21940000D02*
X14690000Y-21940000D01*
X18940000Y-32060000D02*
X14690000Y-32060000D01*
X22510000Y-30340000D02*
X22510000Y-23660000D01*
%TD*%
M02*
